<svg fill="none" height="106" viewBox="0 0 275 106" width="275" xmlns="http://www.w3.org/2000/svg" xmlns:xlink="http://www.w3.org/1999/xlink"><clipPath id="a"><path d="m31 42.8799h213v20h-213z"/></clipPath><g clip-path="url(#a)" fill="#e5e1f9"><path d="m33.1221 54.2511v7.4845h-1.6975v-18.0168h10.7638v1.5432h-9.0663z"/><path d="m33.3148 61.9285h-2.0834v-18.4026h11.1497v1.929h-9.0663zm-1.6976-.3858h1.3118v-16.4736h9.0277v-1.1574h-10.3395z"/><path d="m44.0784 61.7362h-1.7361l7.6002-18.4413h.1158l7.6002 18.4413h-1.7746l-1.2346-3.125h-9.2978zm5.9413-14.6604-4.0509 9.9922h8.0632z"/><path d="m57.9674 61.9271h-2.199l-1.2346-3.125h-9.0277l-1.2731 3.125h-2.1605l7.7546-18.827h.3858zm-1.929-.3858h1.3503l-7.3687-17.9011-7.3688 17.9011h1.3117l1.2731-3.125h9.5679zm-1.7361-4.2824h-8.6033l4.321-10.6866zm-8.0246-.3858h7.4845l-3.7037-9.2591z"/><path d="m43.886 61.7362h-1.7361l7.5617-18.4413h.1157l7.6003 18.4413h-1.7361l-1.2346-3.125h-9.2978zm5.9413-14.6604-4.0509 9.9922h8.0632z"/><path d="m57.7744 61.9271h-2.1991l-1.2345-3.125h-9.0663l-1.2732 3.125h-2.1605l7.7546-18.827h.3858zm-1.9676-.3858h1.3503l-7.3688-17.9011-7.3302 17.9011h1.2732l1.2731-3.125h9.5678zm-1.6975-4.2824h-8.6419l4.3595-10.6866zm-8.0632-.3858h7.4845l-3.7037-9.2591z"/><path d="m60.6296 43.7188h5.8642c3.395 0 5.054 1.9675 5.054 4.4366 0 1.7361-.8488 2.9321-2.3148 3.588 2.2762.6173 3.7422 2.3148 3.7422 4.7453 0 2.9321-1.8904 5.2469-5.787 5.2469h-6.5586zm6.0571 7.4459c2.2762 0 3.1635-1.2346 3.1635-3.0093 0-1.6589-.9644-2.932-3.4336-2.932h-4.0894v5.9413zm.3472 9.0277c3.0093 0 4.2052-1.6203 4.2052-3.7422 0-2.1991-1.3503-3.8195-4.2823-3.8195h-4.6296v7.5617z"/><path d="m67.188 61.9285h-6.7515v-18.4026h6.0571c3.858 0 5.2469 2.3919 5.2469 4.6296 0 1.5818-.6945 2.8163-1.9676 3.5493 2.1605.7331 3.395 2.5077 3.395 4.784 0 2.6234-1.5432 5.4397-5.9799 5.4397zm-6.3657-.3858h6.3657c3.4722 0 5.5941-1.929 5.5941-5.0539 0-2.2377-1.3503-3.9352-3.5879-4.5525l-.5401-.1543.5401-.2315c1.4275-.6558 2.1991-1.8518 2.1991-3.4336 0-2.6234-1.8519-4.2438-4.8611-4.2438h-5.7099zm6.2114-1.1574h-4.8996v-7.9474h4.8225c2.7777 0 4.4752 1.5046 4.4752 4.0123s-1.5817 3.9351-4.3981 3.9351zm-4.5138-.3858h4.4752c2.5849 0 4.0124-1.2731 4.0124-3.5493 0-2.3148-1.4661-3.6265-4.0509-3.6265h-4.4367zm4.1666-8.6419h-4.5524v-6.2885h4.2438c2.3148 0 3.6265 1.1188 3.6265 3.125.0386 2.0447-1.1574 3.1635-3.3179 3.1635zm-4.1666-.3858h4.1666c1.9676 0 2.9707-.9259 2.9707-2.7777 0-1.7361-1.1574-2.7006-3.2408-2.7006h-3.858v5.4783z"/><path d="m60.6296 43.7188h5.8642c3.395 0 5.054 1.9675 5.054 4.4366 0 1.7361-.8488 2.9321-2.3148 3.588 2.2762.6173 3.7422 2.3148 3.7422 4.7453 0 2.9321-1.8904 5.2469-5.787 5.2469h-6.5586zm6.0571 7.4459c2.2762 0 3.1635-1.2346 3.1635-3.0093 0-1.6589-.9644-2.932-3.4336-2.932h-4.0894v5.9413zm.3472 9.0277c3.0093 0 4.2052-1.6203 4.2052-3.7422 0-2.1991-1.3503-3.8195-4.2823-3.8195h-4.6296v7.5617z"/><path d="m67.188 61.9285h-6.7515v-18.4026h6.0571c3.858 0 5.2469 2.3919 5.2469 4.6296 0 1.5818-.6945 2.8163-1.9676 3.5493 2.1605.7331 3.395 2.5077 3.395 4.784 0 2.6234-1.5432 5.4397-5.9799 5.4397zm-6.3657-.3858h6.3657c3.4722 0 5.5941-1.929 5.5941-5.0539 0-2.2377-1.3503-3.9352-3.5879-4.5525l-.5401-.1543.5401-.2315c1.4275-.6558 2.1991-1.8518 2.1991-3.4336 0-2.6234-1.8519-4.2438-4.8611-4.2438h-5.7099zm6.2114-1.1574h-4.8996v-7.9474h4.8225c2.7777 0 4.4752 1.5046 4.4752 4.0123s-1.5817 3.9351-4.3981 3.9351zm-4.5138-.3858h4.4752c2.5849 0 4.0124-1.2731 4.0124-3.5493 0-2.3148-1.4661-3.6265-4.0509-3.6265h-4.4367zm4.1666-8.6419h-4.5524v-6.2885h4.2438c2.3148 0 3.6265 1.1188 3.6265 3.125.0386 2.0447-1.1574 3.1635-3.3179 3.1635zm-4.1666-.3858h4.1666c1.9676 0 2.9707-.9259 2.9707-2.7777 0-1.7361-1.1574-2.7006-3.2408-2.7006h-3.858v5.4783z"/><path d="m88.0983 61.7356h-2.0833l-3.5879-4.591c-.463.0772-.9645.1157-1.4661.1157h-2.199v4.5139h-1.7361v-18.0554h3.9351c4.8997 0 7.446 2.8934 7.446 6.79 0 2.8935-1.4275 5.2469-4.2053 6.2114zm-7.2916-6.0185c4.0895 0 5.7484-2.199 5.7484-5.2083 0-3.0092-1.6589-5.2468-5.7484-5.2468h-2.0833v10.4551z"/><path d="m88.4842 61.9285h-2.5849l-3.5879-4.591c-.4244.0772-.8488.0772-1.3889.0772h-2.0062v4.5138h-2.1219v-18.4026h4.1281c4.7067 0 7.6388 2.662 7.6388 6.983 0 3.0092-1.5046 5.2854-4.0894 6.3271zm-2.392-.3858h1.5818l-3.858-4.8996.2701-.0772c2.5848-.9259 4.0894-3.125 4.0894-6.057 0-4.0509-2.7777-6.5972-7.253-6.5972h-3.7423v17.631h1.3118v-4.5138h2.3919c.5787 0 1.0417-.0386 1.4661-.1158h.1157zm-5.2854-5.6326h-2.2763v-10.841h2.2763c3.8194 0 5.9413 1.929 5.9413 5.4398.0385 3.4722-2.0833 5.4012-5.9413 5.4012zm-1.8905-.3858h1.8905c4.591 0 5.5555-2.7392 5.5555-5.0154 0-3.2408-1.9676-5.054-5.5555-5.054h-1.8905z"/><path d="m88.0983 61.7356h-2.0833l-3.5879-4.591c-.463.0772-.9645.1157-1.4661.1157h-2.199v4.5139h-1.7361v-18.0554h3.9351c4.8997 0 7.446 2.8934 7.446 6.79 0 2.8935-1.4275 5.2469-4.2053 6.2114zm-7.2916-6.0185c4.0895 0 5.7484-2.199 5.7484-5.2083 0-3.0092-1.6589-5.2468-5.7484-5.2468h-2.0833v10.4551z"/><path d="m88.4842 61.9285h-2.5849l-3.5879-4.591c-.4244.0772-.8488.0772-1.3889.0772h-2.0062v4.5138h-2.1219v-18.4026h4.1281c4.7067 0 7.6388 2.662 7.6388 6.983 0 3.0092-1.5046 5.2854-4.0894 6.3271zm-2.392-.3858h1.5818l-3.858-4.8996.2701-.0772c2.5848-.9259 4.0894-3.125 4.0894-6.057 0-4.0509-2.7777-6.5972-7.253-6.5972h-3.7423v17.631h1.3118v-4.5138h2.3919c.5787 0 1.0417-.0386 1.4661-.1158h.1157zm-5.2854-5.6326h-2.2763v-10.841h2.2763c3.8194 0 5.9413 1.929 5.9413 5.4398.0385 3.4722-2.0833 5.4012-5.9413 5.4012zm-1.8905-.3858h1.8905c4.591 0 5.5555-2.7392 5.5555-5.0154 0-3.2408-1.9676-5.054-5.5555-5.054h-1.8905z"/><path d="m94.2327 43.7188h-1.7361v18.0168h1.7361z"/><path d="m94.4642 61.9285h-2.1219v-18.4026h2.1219zm-1.7747-.3858h1.3503v-17.631h-1.3503z"/><path d="m94.2327 43.7188h-1.7361v18.0168h1.7361z"/><path d="m94.4642 61.9285h-2.1219v-18.4026h2.1219zm-1.7747-.3858h1.3503v-17.631h-1.3503z"/><path d="m97.9363 52.7074c0-5.3626 4.0127-9.2206 9.1047-9.2206 3.048 0 5.44 1.2346 7.06 3.3565l-1.311.9645c-1.351-1.7361-3.241-2.7392-5.787-2.7392-4.167 0-7.292 3.2793-7.292 7.6388 0 4.4367 3.163 7.6389 7.407 7.6389 2.585 0 4.707-1.0803 6.134-3.0093l1.351.9645c-1.775 2.3148-4.283 3.588-7.523 3.588-5.131.0386-9.1437-3.8194-9.1437-9.1821z"/><path d="m107.118 62.1219c-2.585 0-4.977-.9645-6.713-2.7006-1.7359-1.7361-2.6618-4.128-2.6618-6.7129 0-5.3626 4.0118-9.4135 9.2978-9.4135 3.009 0 5.517 1.196 7.214 3.4336l.116.1544-1.659 1.1959-.116-.1543c-1.388-1.7747-3.279-2.662-5.632-2.662-4.051 0-7.0989 3.2021-7.0989 7.4459 0 4.321 3.0479 7.4459 7.2139 7.4459 2.47 0 4.514-1.003 5.98-2.932l.116-.1544 1.659 1.196-.116.1543c-1.774 2.4692-4.359 3.7037-7.6 3.7037zm-.077-18.4412c-5.054 0-8.912 3.8966-8.912 9.0277 0 2.5077.8873 4.7839 2.546 6.4429 1.659 1.6589 3.935 2.5848 6.443 2.5848 3.048 0 5.478-1.1188 7.253-3.3564l-1.042-.7331c-1.504 1.929-3.626 2.9321-6.172 2.9321-4.398 0-7.6006-3.3179-7.6006-7.8317 0-4.4753 3.2026-7.8317 7.4846-7.8317 2.43 0 4.359.8873 5.825 2.7006l1.004-.733c-1.659-2.1219-4.013-3.2022-6.829-3.2022z"/><path d="m97.9363 52.7074c0-5.3626 4.0127-9.2206 9.1047-9.2206 3.048 0 5.44 1.2346 7.06 3.3565l-1.311.9645c-1.351-1.7361-3.241-2.7392-5.787-2.7392-4.167 0-7.292 3.2793-7.292 7.6388 0 4.4367 3.163 7.6389 7.407 7.6389 2.585 0 4.707-1.0803 6.134-3.0093l1.351.9645c-1.775 2.3148-4.283 3.588-7.523 3.588-5.131.0386-9.1437-3.8194-9.1437-9.1821z"/><path d="m107.118 62.1219c-2.585 0-4.977-.9645-6.713-2.7006-1.7359-1.7361-2.6618-4.128-2.6618-6.7129 0-5.3626 4.0118-9.4135 9.2978-9.4135 3.009 0 5.517 1.196 7.214 3.4336l.116.1544-1.659 1.1959-.116-.1543c-1.388-1.7747-3.279-2.662-5.632-2.662-4.051 0-7.0989 3.2021-7.0989 7.4459 0 4.321 3.0479 7.4459 7.2139 7.4459 2.47 0 4.514-1.003 5.98-2.932l.116-.1544 1.659 1.196-.116.1543c-1.774 2.4692-4.359 3.7037-7.6 3.7037zm-.077-18.4412c-5.054 0-8.912 3.8966-8.912 9.0277 0 2.5077.8873 4.7839 2.546 6.4429 1.659 1.6589 3.935 2.5848 6.443 2.5848 3.048 0 5.478-1.1188 7.253-3.3564l-1.042-.7331c-1.504 1.929-3.626 2.9321-6.172 2.9321-4.398 0-7.6006-3.3179-7.6006-7.8317 0-4.4753 3.2026-7.8317 7.4846-7.8317 2.43 0 4.359.8873 5.825 2.7006l1.004-.733c-1.659-2.1219-4.013-3.2022-6.829-3.2022z"/><path d="m42.1496 43.7188h-1.5817v3.9351h1.5817z"/><path d="m42.3811 47.8468h-2.0061v-4.3209h2.0061zm-1.6203-.3858h1.196v-3.5493h-1.196z"/><path d="m33.0447 52.7085h5.0154v1.5046h-5.0154"/><path d="m38.2532 54.4426h-5.2083v-.4243h4.8225v-1.1189h-4.8225v-.3857h5.2083z"/><path d="m42.1496 43.5239h-1.9676-9.182v18.4026h2.1219v-7.4845h4.8997v-1.9289h-4.8997v-7.0602h7.0601v2.392h1.9676z"/><path d="m154.224 45.2997v16.6665h-.771v-18.9042h.116l12.924 17.1295v-16.6665h.772v18.9042h-.116z"/><path d="m176.524 44.2955h-5.903v-.7716h12.693v.7716h-5.903v17.6696h-.849v-17.6696z"/><path d="m186.516 55.8695v-12.3456h.849v12.2684c0 3.6265 2.16 5.6327 5.208 5.6327s5.247-1.9676 5.247-5.6327v-12.2684h.849v12.3842c0 4.0894-2.662 6.2885-6.135 6.2885-3.472 0-6.018-2.1991-6.018-6.3271z"/><path d="m214.178 61.9651h-1.081l-4.128-4.8996c-.501.0385-1.041.1157-1.581.1157h-2.585v4.7839h-.849v-18.4412h3.472c4.938 0 7.369 3.0478 7.369 6.8287 0 3.0478-1.62 5.6326-4.861 6.52zm-6.906-5.5555c4.707 0 6.636-2.7006 6.636-6.057 0-3.3565-1.968-6.0571-6.636-6.0571h-2.508v12.1141z"/><path d="m219.965 55.5223v5.6712h10.146v.7716h-10.995v-18.4412h10.648v.7716h-9.761v10.4937zm0-1.8519h7.098v.7716h-7.098"/><path d="m139.178 55.5223v5.6712h10.147v.7716h-10.996v-18.4412h10.649v.7716h-9.761v10.4937zm0-1.8519h7.099v.7716h-7.099"/><path d="m233.198 58.1858c1.041 2.0061 2.97 3.2407 5.324 3.2407 2.97 0 4.629-1.5432 4.629-3.8194 0-2.2377-1.196-3.4337-3.896-4.7453l-1.698-.8102c-2.585-1.2732-4.012-2.2762-4.012-4.6296 0-2.4691 1.967-4.0509 4.437-4.0509 2.237 0 3.703.8102 4.822 2.5848l-.656.3858c-.964-1.5046-2.237-2.2376-4.166-2.2376-2.122 0-3.588 1.4275-3.588 3.3179 0 2.0061 1.118 2.7392 3.549 3.9351l1.659.8102c3.086 1.5046 4.398 2.9706 4.398 5.4398 0 2.7391-2.045 4.6296-5.478 4.6296-2.894 0-4.939-1.4661-6.057-3.588z"/><path d="m134.124 43.5239h-.386-3.742v.7716h3.434l-6.366 16.165-6.404-16.165h3.433v-.7716h-3.742-.386-.501l7.484 18.9042h.116l7.523-18.9042z"/></g></svg>