<svg fill="none" height="25" viewBox="0 0 119 25" width="119" xmlns="http://www.w3.org/2000/svg" xmlns:xlink="http://www.w3.org/1999/xlink"><clipPath id="a"><path d="m.469482.5h118.061v24h-118.061z"/></clipPath><g clip-path="url(#a)"><path d="m65.0632 8.24961h3.8098v10.00699h1.7318v-10.00699h3.8098v-1.5029h-9.3514zm-28.6633 7.97839h-.034l-3.3522-9.48129h-1.8554l4.283 11.52529h1.8956l4.1963-11.52529h-1.7657zm6.8991 2.0286h7.8856v-1.506h-6.1539v-3.6923h5.6746v-1.472h-5.6746v-3.33669h6.1539v-1.5029h-7.8856zm18.1647-2.4739h-.0155l-5.591-9.03599h-2.0781v11.50989h1.6853v-9.24008l5.6746 9.24008h1.9791v-11.50989h-1.6699zm21.993-1.5864c0 1.7348-.9957 2.814-2.7646 2.814-1.7688 0-2.7831-1.0792-2.7831-2.814v-7.42176h-1.7348v7.45886c0 2.4739 1.6358 4.2675 4.5117 4.2675 2.876 0 4.5149-1.7967 4.5149-4.2675v-7.48669h-1.7348zm31.6223-2.4337-1.586-.2474c-1.274-.2134-2.093-.6525-2.093-1.75032 0-1.02977.85-1.85543 2.585-1.85543s2.551.80092 2.616 1.91109h1.75c-.068-1.76575-1.506-3.31813-4.351-3.31813-2.783 0-4.348 1.52145-4.348 3.38307 0 2.02862 1.404 2.94392 3.368 3.23772l1.602.2474c1.388.2288 2.143.6525 2.143 1.7472 0 1.1782-1.03 1.9977-2.749 1.9977-1.72 0-2.827-.77-2.892-2.1647h-1.75c.049 2.075 1.781 3.5624 4.639 3.5624 2.715 0 4.53-1.4039 4.53-3.516-.012-2.0719-1.453-2.9378-3.464-3.247zm-15.3842 6.494h7.8952v-1.506h-6.163v-3.6923h5.674v-1.472h-5.674v-3.33669h6.163v-1.5029h-7.8952zm-6.3301-4.7901c2.4368 0 3.7789-1.2927 3.7789-3.3213 0-2.02856-1.373-3.40158-3.8593-3.40158h-4.9911v11.51298h1.7348v-4.7901l5.1983 4.7901h2.474l-5.3313-4.7901zm-3.3336-5.23545h3.2099c1.4225 0 2.1647.70507 2.1647 1.85545v.1979c0 1.1442-.736 1.8554-2.1647 1.8554h-3.2099zm-77.5601 10.26985c-1.1448.0017-2.2663-.324-3.23206-.9387-.96579-.6148-1.73564-1.4929-2.21874-2.5308-.48309-1.0379-.65929-2.1923-.50781-3.3271.15148-1.1347.62433-2.20251 1.36277-3.07736.73844-.87484 1.71166-1.52025 2.80484-1.86012 1.0933-.33986 2.2609-.35999 3.3652-.05802 1.1043.30198 2.0992.91346 2.8673 1.76233.7682.84886 1.2775 1.89967 1.4681 3.02857h6.0456c-.2581-3.08555-1.6988-5.95197-4.0209-8.00017-2.322-2.04821-5.3459-3.119699-8.4395-2.990539-3.09368.12916-6.01769 1.448979-8.16098 3.683609-2.14328 2.23464-3.339976 5.21116-3.339976 8.3075 0 3.0963 1.196696 6.0728 3.339976 8.3075 2.14329 2.2346 5.0673 3.5544 8.16098 3.6836 3.0936.1292 6.1175-.9423 8.4395-2.9905 2.3221-2.0483 3.7628-4.9147 4.0209-8.0002h-6.0456c-.2354 1.3974-.958 2.6663-2.0398 3.5816-1.0817.9153-2.4527 1.418-3.8698 1.4188z" fill="#e5e1f9"/></g></svg>