<svg fill="none" height="106" viewBox="0 0 275 106" width="275" xmlns="http://www.w3.org/2000/svg" xmlns:xlink="http://www.w3.org/1999/xlink"><clipPath id="a"><path d="m61 44.8799h153v16h-153z"/></clipPath><g clip-path="url(#a)" fill="#e5e1f9"><path d="m61.4639 45.8484c-.0867-.2969.0849-.5113.3865-.5113h1.976c.1716 0 .3432.1484.3865.2969l2.2343 8.4879h.0849l3.4156-8.7634c.0433-.127.1499-.2325.3648-.2325h.3866c.2149 0 .3215.1055.3649.2325l3.4421 8.7634h.0867l2.1909-8.4879c.0433-.1485.2149-.2969.3866-.2969h1.9759c.2999 0 .4733.2128.3866.5113l-4.0603 14.2938c-.0433.1698-.2149.2969-.3866.2969h-.3432c-.1933 0-.3216-.1072-.3649-.2343l-3.8453-9.6341h-.1067l-3.8037 9.6341c-.065.1271-.1499.2343-.3649.2343h-.3432c-.1716 0-.3432-.1287-.3865-.2969z"/><path d="m83.7876 45.7435c0-.2128.1933-.4041.4082-.4041h1.9977c.2149 0 .4082.1913.4082.4041v14.081c0 .2127-.1933.4041-.4082.4041h-1.9977c-.2149 0-.4082-.1914-.4082-.4041z"/><path d="m92.3318 45.5086c0-.2127.1933-.3826.4081-.3826h.5365l8.9366 9.4h.022v-8.7831c0-.2128.172-.4042.408-.4042h1.976c.215 0 .409.1914.409.4042v14.3136c0 .2127-.194.3826-.409.3826h-.516l-8.9805-9.7629h-.0216v9.146c0 .2128-.1717.4041-.4083.4041h-1.9543c-.2149 0-.4082-.1913-.4082-.4041v-14.3136z"/><path d="m112.745 47.891h-3.287c-.237 0-.409-.1913-.409-.4041v-1.7434c0-.2128.172-.4041.409-.4041h9.388c.237 0 .408.1913.408.4041v1.7434c0 .2128-.171.4041-.408.4041h-3.287v11.9318c0 .2128-.193.4042-.408.4042h-1.998c-.215 0-.408-.1914-.408-.4042z"/><path d="m123.265 45.7435c0-.2128.171-.4041.408-.4041h8.744c.236 0 .408.1913.408.4041v1.7434c0 .2128-.172.4041-.408.4041h-6.36v3.4885h5.307c.214 0 .408.1913.408.4041v1.7649c0 .2342-.194.4041-.408.4041h-5.307v3.7227h6.36c.236 0 .408.1913.408.4041v1.7451c0 .2127-.172.4041-.408.4041h-8.744c-.237 0-.408-.1914-.408-.4041z"/><path d="m137.852 45.7435c0-.2128.171-.4041.408-.4041h6.144c2.578 0 4.684 2.0419 4.684 4.5738 0 1.9562-1.311 3.5511-3.179 4.2967l2.944 5.4018c.15.2771 0 .6169-.365.6169h-2.256c-.193 0-.3-.1056-.343-.1914l-2.858-5.636h-2.384v5.4233c0 .2127-.193.4041-.408.4041h-1.976c-.237 0-.408-.1914-.408-.4041v-14.081zm6.316 6.3799c1.138 0 2.127-.9781 2.127-2.169 0-1.1265-.988-2.0634-2.127-2.0634h-3.502v4.2324z"/><path d="m155.492 45.4443c.022-.1699.15-.3183.387-.3183h.343c.172 0 .3.0841.365.2127l4.727 10.04h.065l4.726-10.04c.065-.127.172-.2127.365-.2127h.343c.237 0 .365.1484.387.3183l2.536 14.2922c.064.2968-.108.4898-.387.4898h-1.954c-.193 0-.365-.1698-.408-.3183l-1.268-8.0607c-.022 0-.065 0-.065 0l-3.761 8.3592c-.043.1271-.171.2343-.364.2343h-.385c-.194 0-.3-.1072-.365-.2343l-3.804-8.3592s-.043 0-.065 0l-1.246 8.0607c-.022.1485-.194.3183-.387.3183h-1.934c-.28 0-.452-.1913-.408-.4898z"/><path d="m174.164 45.7435c0-.2128.194-.4041.408-.4041h2.041c.237 0 .408.1913.408.4041v8.6989c0 1.8078 1.247 3.2329 3.117 3.2329 1.869 0 3.137-1.4251 3.137-3.2114v-8.7204c0-.2128.171-.4041.407-.4041h2.042c.215 0 .409.1913.409.4041v8.8474c0 3.2329-2.6 5.8488-5.995 5.8488-3.373 0-5.974-2.6159-5.974-5.8488z"/><path d="m193.741 47.891h-3.288c-.236 0-.407-.1913-.407-.4041v-1.7434c0-.2128.171-.4041.407-.4041h9.389c.237 0 .409.1913.409.4041v1.7434c0 .2128-.172.4041-.409.4041h-3.287v11.9318c0 .2128-.193.4042-.408.4042h-1.998c-.215 0-.408-.1914-.408-.4042z"/><path d="m204.261 45.7435c0-.2128.171-.4041.408-.4041h8.744c.236 0 .408.1913.408.4041v1.7434c0 .2128-.172.4041-.408.4041h-6.359v3.4885h5.306c.214 0 .407.1913.407.4041v1.7649c0 .2342-.193.4041-.407.4041h-5.306v3.7227h6.359c.236 0 .408.1913.408.4041v1.7451c0 .2127-.172.4041-.408.4041h-8.744c-.237 0-.408-.1914-.408-.4041z"/></g></svg>