<svg fill="none" height="106" viewBox="0 0 275 106" width="275" xmlns="http://www.w3.org/2000/svg"><g fill="#e5e1f9"><path clip-rule="evenodd" d="m31.8206 43.2049v7.5381h5.9756v-7.5381zm6.0148-.0029h13.3843v-5.6726h-13.3843zm205.1706 3.7239h-7.535l-7.361 7.9242v-17.9702h-5.758v31.3505h5.758v-5.6293l2.382-2.5114 5.629 8.1407h7.059l-8.704-12.341zm-205.1665 21.3045v-11.9513h11.908v-5.4993h-11.912v5.5274h-6.0149v11.9232zm28.5074-21.3911c-.433-.0433-.866-.0866-1.3424-.0866-1.8186 0-4.7631.5196-6.0622 3.3342v-3.161h-5.5859v21.3045h5.7591v-9.7429c0-4.59 2.5548-6.019 5.4994-6.019.5195 0 1.0825.0434 1.732.1733zm9.3308 21.9973c-4.5466 0-7.3179-3.0744-7.3179-6.4086 0-3.8106 2.8146-5.9324 6.3653-6.452l5.2396-.7795c1.2124-.1732 1.6021-.7794 1.6021-1.5155 0-1.5156-1.1692-2.7713-3.594-2.7713-2.5115 0-3.8972 1.6022-4.0704 3.4641l-5.1096-1.0825c.3464-3.3343 3.4208-7.0149 9.1367-7.0149 6.7551 0 9.2665 3.8105 9.2665 8.0974v10.479c0 1.1259.1299 2.6414.2598 3.3776h-5.2828c-.1299-.5629-.2164-1.7321-.2164-2.5548-1.0827 1.6887-3.1178 3.161-6.2789 3.161zm-1.5588-6.7551c0 1.2558.9093 2.4683 2.7713 2.4683 2.4249 0 4.6766-1.1692 4.6766-4.9365v-.9526l-4.8065.7361c-1.4723.2165-2.6414 1.0393-2.6414 2.6847zm22.2984 6.1489v-12.4709c0-2.3384 1.4724-4.2003 3.9837-4.2003 2.598 0 3.767 1.732 3.767 4.0271v12.6441h5.716v-12.4709c0-2.295 1.473-4.2003 3.941-4.2003 2.641 0 3.766 1.732 3.766 4.0271v12.6441h5.587v-13.8133c0-5.7158-3.768-8.0974-7.708-8.0974-2.815 0-5.066.9526-6.755 3.5507-1.083-2.295-3.421-3.5507-6.322-3.5507-2.338 0-5.0668 1.1259-6.2355 3.2043v-2.5981h-5.4993v21.3045zm61.1687-7.6212 4.633-13.6833h6.062l4.591 13.7267 3.939-13.7267h5.717l-6.669 21.3045h-5.759l-4.979-14.5494-4.894 14.5494h-5.845l-6.799-21.3045h6.062zm35.953 3.0312c-2.814 0-5.412-2.0785-5.412-6.0622 0-4.0272 2.598-6.0623 5.412-6.0623 2.815 0 5.413 2.0351 5.413 6.0623 0 4.027-2.598 6.0622-5.413 6.0622zm0-17.364c-6.365 0-11.171 4.7199-11.171 11.3018 0 6.5385 4.806 11.3017 11.171 11.3017 6.366 0 11.172-4.7632 11.172-11.3017 0-6.5819-4.806-11.3018-11.172-11.3018zm25.024.4763c.476 0 .909.0433 1.342.0866v5.8025c-.65-.1299-1.213-.1733-1.732-.1733-2.945 0-5.5 1.429-5.5 6.019v9.7429h-5.758v-21.3045h5.585v3.161c1.299-2.8146 4.244-3.3342 6.063-3.3342z" fill-rule="evenodd"/><path d="m131.608 55.1527c.13-1.9486 1.775-4.2003 4.763-4.2003 3.291 0 4.677 2.0785 4.763 4.2003zm10.089 5.5427c-.692 1.9052-2.165 3.2475-4.85 3.2475-2.858 0-5.239-2.0351-5.369-4.8497h15.243c0-.0867.086-.9527.086-1.7754 0-6.8417-3.941-11.0419-10.523-11.0419-5.455 0-10.479 4.4167-10.479 11.2151 0 7.1881 5.154 11.3884 10.999 11.3884 5.24 0 8.617-3.0745 9.699-6.7551z"/></g></svg>