<svg fill="none" height="106" viewBox="0 0 275 106" width="275" xmlns="http://www.w3.org/2000/svg"><path d="m108.504 48.5791h2.496l.164 1.4883c.406-.5235.926-.9453 1.559-1.2656.64-.3204 1.422-.4805 2.343-.4805.914 0 1.688.1836 2.321.5508.64.3672 1.129.9297 1.465 1.6875.195-.3282.425-.6289.691-.9024.273-.2734.582-.5078.926-.7031.351-.2031.742-.3594 1.172-.4687.437-.1094.921-.1641 1.453-.1641 1.367 0 2.426.418 3.176 1.2539s1.125 2.1133 1.125 3.832v8.4727h-2.836v-8.3789c0-1.0156-.196-1.7656-.586-2.25-.391-.4922-.942-.7383-1.653-.7383-.609 0-1.175.1367-1.699.4102-.523.2656-.969.6679-1.336 1.207.024.2031.043.4101.059.6211.015.2109.023.4297.023.6562v8.4727h-2.836v-8.3789c0-1.0156-.195-1.7656-.586-2.25-.39-.4922-.941-.7383-1.652-.7383-.586 0-1.133.125-1.641.375-.507.2422-.945.6172-1.312 1.125v9.8672h-2.836zm22.16 15.6563c0-.6954.188-1.2579.563-1.6875.382-.4219.886-.7579 1.511-1.0079-.359-.2265-.64-.5351-.843-.9257-.204-.3985-.309-.8164-.317-1.2539-.008-.5079.141-.9883.445-1.4415.313-.4609.754-.8242 1.325-1.0898-.735-.375-1.321-.8984-1.758-1.5703-.438-.6719-.656-1.4805-.656-2.4258 0-.7266.14-1.3672.421-1.9219.282-.5625.657-1.0351 1.125-1.4179.477-.3828 1.028-.6719 1.653-.8672.633-.2031 1.301-.3047 2.004-.3047.687 0 1.332.0898 1.933.2695.61.1719 1.153.4258 1.629.7617.219-.375.516-.6406.891-.7968.375-.1563.785-.2344 1.23-.2344h1.137v2.1094h-.645c-.226 0-.46.0195-.703.0586-.242.039-.464.1015-.668.1875.204.3281.356.6914.457 1.0898.11.3906.164.8125.164 1.2656 0 .7266-.14 1.3672-.421 1.9219-.274.5547-.649 1.0234-1.125 1.4063-.477.375-1.032.6601-1.664.8554-.625.1875-1.29.2813-1.993.2813-.171 0-.343-.0039-.515-.0117-.164-.0157-.324-.0313-.481-.0469-.359.0703-.636.2148-.832.4336-.187.2109-.281.5039-.281.8789 0 .3437.078.6133.234.8086.164.1953.375.3398.633.4336.258.0937.543.1523.856.1757.32.0157.636.0235.949.0235.484 0 .961.0156 1.43.0469.476.0234.925.082 1.347.1757.422.086.809.211 1.16.375.36.1563.668.3711.926.6446.266.2734.469.6093.61 1.0078.148.3984.222.875.222 1.4297 0 .6015-.129 1.1523-.387 1.6523-.25.5-.628.9297-1.136 1.2891-.508.3672-1.141.6523-1.899.8554-.75.2032-1.629.3047-2.636.3047-1.016 0-1.895-.0937-2.637-.2812-.734-.1797-1.344-.4375-1.828-.7735-.485-.3281-.844-.7226-1.078-1.1835-.235-.4532-.352-.9532-.352-1.5zm5.566-8.8125c.829 0 1.465-.1954 1.911-.586.453-.3984.679-1.0351.679-1.9101s-.23-1.5157-.691-1.9219c-.461-.4063-1.082-.6094-1.863-.6094-.828 0-1.465.207-1.911.6211-.445.4063-.667 1.0469-.667 1.9219 0 .4375.058.8164.175 1.1367.117.3125.285.5703.504.7734.219.1953.485.3399.797.4336.313.0938.668.1407 1.066.1407zm-2.812 8.4609c0 .2812.059.543.176.7851.117.25.304.4649.562.6446.266.1875.606.332 1.02.4336.422.1093.937.164 1.547.164 1.062 0 1.851-.1757 2.367-.5273.523-.3516.785-.8203.785-1.4063 0-.375-.098-.6718-.293-.8906-.187-.2187-.445-.3867-.773-.5039-.321-.1094-.692-.1797-1.114-.2109-.422-.0313-.859-.0469-1.312-.0469-.242 0-.516-.0078-.821-.0234-.296-.0079-.578-.0196-.843-.0352-.297.0625-.531.1523-.703.2695-.172.125-.301.2578-.387.3985-.086.1484-.145.3047-.176.4687-.023.1641-.035.3242-.035.4805zm12.164-15.3047h2.496l.164 1.4883c.406-.5235.926-.9453 1.559-1.2656.64-.3204 1.422-.4805 2.344-.4805 1.367 0 2.425.418 3.175 1.2539s1.125 2.1133 1.125 3.832v8.4727h-2.836v-8.3789c0-1.0156-.195-1.7656-.586-2.25-.39-.4922-.941-.7383-1.652-.7383-.586 0-1.133.125-1.641.375-.507.2422-.945.6172-1.312 1.125v9.8672h-2.836zm14.859 0h2.497l.164 1.5352c.429-.5625.953-1 1.57-1.3125.625-.3204 1.316-.4805 2.074-.4805.305 0 .516.0273.633.082v2.9649c-.266-.1328-.574-.2227-.926-.2696-.351-.0468-.715-.039-1.09.0235s-.746.1914-1.113.3867c-.359.1875-.684.4492-.973.7851v9.586h-2.836z" fill="#e5e1f9"/></svg>