<svg fill="none" height="106" viewBox="0 0 275 106" width="275" xmlns="http://www.w3.org/2000/svg"><path d="m53.7994 60.8799v-16.8h5.424c1.312 0 2.384.216 3.216.648s1.448 1.024 1.848 1.776.6 1.584.6 2.496c0 1.056-.288 2.008-.864 2.856-.56.848-1.44 1.448-2.64 1.8l3.672 7.224h-2.376l-3.408-6.936h-.144-3.312v6.936zm2.016-8.52h3.264c1.296 0 2.24-.312 2.832-.936s.888-1.424.888-2.4c0-.992-.296-1.776-.888-2.352-.576-.592-1.528-.888-2.856-.888h-3.24zm16.788 8.808c-1.12 0-2.128-.256-3.024-.768s-1.608-1.232-2.136-2.16c-.512-.944-.768-2.048-.768-3.312s.264-2.36.792-3.288c.528-.944 1.24-1.672 2.136-2.184.912-.512 1.928-.768 3.048-.768s2.128.256 3.024.768 1.6 1.24 2.112 2.184c.528.928.792 2.024.792 3.288s-.264 2.368-.792 3.312c-.528.928-1.248 1.648-2.16 2.16-.896.512-1.904.768-3.024.768zm0-1.728c.688 0 1.328-.168 1.92-.504s1.072-.84 1.44-1.512.552-1.504.552-2.496-.184-1.824-.552-2.496c-.352-.672-.824-1.176-1.416-1.512s-1.224-.504-1.896-.504c-.688 0-1.328.168-1.92.504s-1.072.84-1.44 1.512-.552 1.504-.552 2.496.184 1.824.552 2.496.84 1.176 1.416 1.512c.592.336 1.224.504 1.896.504zm15.1392 1.728c-.976 0-1.848-.2-2.616-.6-.752-.4-1.328-.96-1.728-1.68l-.192 1.992h-1.824v-17.28h2.016v7.344c.384-.576.928-1.096 1.632-1.56.72-.464 1.632-.696 2.736-.696 1.184 0 2.216.272 3.096.816s1.56 1.288 2.04 2.232c.496.944.744 2.016.744 3.216s-.248 2.272-.744 3.216c-.48.928-1.168 1.664-2.064 2.208-.88.528-1.912.792-3.096.792zm-.216-1.752c.8 0 1.504-.184 2.112-.552.608-.384 1.088-.912 1.44-1.584s.528-1.456.528-2.352-.176-1.68-.528-2.352-.832-1.192-1.44-1.56c-.608-.384-1.312-.576-2.112-.576s-1.504.192-2.112.576c-.608.368-1.088.888-1.44 1.56s-.528 1.456-.528 2.352.176 1.68.528 2.352.832 1.2 1.44 1.584c.608.368 1.312.552 2.112.552zm14.3504 1.752c-1.12 0-2.1281-.256-3.0241-.768s-1.608-1.232-2.136-2.16c-.512-.944-.768-2.048-.768-3.312s.264-2.36.792-3.288c.528-.944 1.24-1.672 2.136-2.184.912-.512 1.9281-.768 3.0481-.768s2.128.256 3.024.768 1.6 1.24 2.112 2.184c.528.928.792 2.024.792 3.288s-.264 2.368-.792 3.312c-.528.928-1.248 1.648-2.16 2.16-.896.512-1.904.768-3.024.768zm0-1.728c.688 0 1.328-.168 1.92-.504s1.072-.84 1.44-1.512.552-1.504.552-2.496-.184-1.824-.552-2.496c-.352-.672-.824-1.176-1.416-1.512s-1.224-.504-1.896-.504c-.688 0-1.328.168-1.92.504-.5921.336-1.0721.84-1.4401 1.512s-.552 1.504-.552 2.496.184 1.824.552 2.496.84 1.176 1.416 1.512c.5921.336 1.2241.504 1.8961.504zm13.014 1.44c-1.088 0-1.944-.264-2.568-.792s-.936-1.48-.936-2.856v-6.552h-2.064v-1.704h2.064l.264-2.856h1.752v2.856h3.504v1.704h-3.504v6.552c0 .752.152 1.264.456 1.536.304.256.84.384 1.608.384h1.248v1.728zm16.113 0-6.312-16.8h2.184l5.304 14.664 5.352-14.664h2.136l-6.312 16.8zm14.629.288c-1.136 0-2.144-.256-3.024-.768-.88-.528-1.576-1.256-2.088-2.184-.496-.928-.744-2.024-.744-3.288 0-1.248.248-2.336.744-3.264.496-.944 1.184-1.672 2.064-2.184.896-.528 1.928-.792 3.096-.792 1.152 0 2.144.264 2.976.792.848.512 1.496 1.192 1.944 2.04s.672 1.76.672 2.736c0 .176-.008.352-.024.528v.6h-9.48c.048.912.256 1.672.624 2.28.384.592.856 1.04 1.416 1.344.576.304 1.184.456 1.824.456.832 0 1.528-.192 2.088-.576s.968-.904 1.224-1.56h1.992c-.32 1.104-.936 2.024-1.848 2.76-.896.72-2.048 1.08-3.456 1.08zm0-10.776c-.96 0-1.816.296-2.568.888-.736.576-1.16 1.424-1.272 2.544h7.488c-.048-1.072-.416-1.912-1.104-2.52s-1.536-.912-2.544-.912zm8.312 10.488v-11.904h1.824l.12 2.136c.384-.752.936-1.344 1.656-1.776s1.536-.648 2.448-.648c1.408 0 2.528.432 3.36 1.296.848.848 1.272 2.16 1.272 3.936v6.96h-2.016v-6.744c0-2.48-1.024-3.72-3.072-3.72-1.024 0-1.88.376-2.568 1.128-.672.736-1.008 1.792-1.008 3.168v6.168zm18.438 0c-1.088 0-1.944-.264-2.568-.792s-.936-1.48-.936-2.856v-6.552h-2.064v-1.704h2.064l.264-2.856h1.752v2.856h3.504v1.704h-3.504v6.552c0 .752.152 1.264.456 1.536.304.256.84.384 1.608.384h1.248v1.728zm8.922.288c-1.408 0-2.528-.424-3.36-1.272-.832-.864-1.248-2.184-1.248-3.96v-6.96h2.016v6.744c0 2.48 1.016 3.72 3.048 3.72 1.04 0 1.896-.368 2.568-1.104.688-.752 1.032-1.816 1.032-3.192v-6.168h2.016v11.904h-1.824l-.144-2.136c-.368.752-.92 1.344-1.656 1.776-.72.432-1.536.648-2.448.648zm9.39-.288v-11.904h1.824l.168 2.28c.368-.784.928-1.408 1.68-1.872s1.68-.696 2.784-.696v2.112h-.552c-.704 0-1.352.128-1.944.384-.592.24-1.064.656-1.416 1.248s-.528 1.408-.528 2.448v6zm13.626.288c-1.136 0-2.144-.256-3.024-.768-.88-.528-1.576-1.256-2.088-2.184-.496-.928-.744-2.024-.744-3.288 0-1.248.248-2.336.744-3.264.496-.944 1.184-1.672 2.064-2.184.896-.528 1.928-.792 3.095-.792 1.153 0 2.145.264 2.977.792.848.512 1.496 1.192 1.944 2.04s.672 1.76.672 2.736c0 .176-.008.352-.024.528v.6h-9.48c.048.912.256 1.672.624 2.28.384.592.856 1.04 1.416 1.344.576.304 1.184.456 1.824.456.832 0 1.528-.192 2.088-.576s.968-.904 1.224-1.56h1.992c-.32 1.104-.936 2.024-1.848 2.76-.896.72-2.048 1.08-3.456 1.08zm0-10.776c-.96 0-1.816.296-2.568.888-.736.576-1.16 1.424-1.273 2.544h7.489c-.048-1.072-.416-1.912-1.104-2.52s-1.536-.912-2.544-.912zm12.872 10.776c-1.424 0-2.608-.36-3.552-1.08s-1.496-1.696-1.656-2.928h2.064c.128.624.456 1.168.984 1.632.544.448 1.272.672 2.184.672.848 0 1.472-.176 1.872-.528.4-.368.6-.8.6-1.296 0-.72-.264-1.2-.792-1.44-.512-.24-1.24-.456-2.184-.648-.64-.128-1.28-.312-1.92-.552s-1.176-.576-1.608-1.008c-.432-.448-.648-1.032-.648-1.752 0-1.04.384-1.888 1.152-2.544.784-.672 1.84-1.008 3.168-1.008 1.264 0 2.296.32 3.096.96.816.624 1.288 1.52 1.416 2.688h-1.992c-.08-.608-.344-1.08-.792-1.416-.432-.352-1.016-.528-1.752-.528-.72 0-1.28.152-1.68.456-.384.304-.576.704-.576 1.2 0 .48.248.856.744 1.128.512.272 1.2.504 2.064.696.736.16 1.432.36 2.088.6.672.224 1.216.568 1.632 1.032.432.448.648 1.104.648 1.968.016 1.072-.392 1.96-1.224 2.664-.816.688-1.928 1.032-3.336 1.032z" fill="#e5e1f9"/></svg>